<?xml version="1.0" encoding="utf-8"?>
<!-- Generator: Adobe Illustrator 22.1.0, SVG Export Plug-In . SVG Version: 6.00 Build 0)  -->
<svg version="1.1" id="OBJECTS" xmlns="http://www.w3.org/2000/svg" xmlns:xlink="http://www.w3.org/1999/xlink" x="0px" y="0px"
	 viewBox="0 0 501.1 301" style="enable-background:new 0 0 501.1 301;" xml:space="preserve">
<style type="text/css">
	.st0{fill:#FFFFFF;}
	.st1{fill:#7F491C;}
	.st2{fill:#F9B95B;}
	.st3{fill:#FFD076;}
	.st4{fill:#F0F0F1;}
</style>
<g>
	<path class="st4" d="M381.5,295.9c2.5-0.2,4.3-2.2,4.2-4.4l-3.7-41.8l0,0l-1.5-16.7c-0.2-2.3,1.7-4.2,4.2-4.4
		c48.8-3.1,75.4-10.2,90.3-23.9c9.2-8.4,13.7-18.7,13.4-30.7c-0.3-12-7.7-25.5-22.7-41c-1.8-1.9-3.8-3.8-5.8-5.7l0.6-1.1l34-3.9
		c3.7-0.4,5.3-4.5,2.6-6.9L474.9,95c-1.1-1-1.5-2.3-1.2-3.6l5.9-28.2c0.7-3.3-3.1-5.9-6.5-4.4l-28.5,12.9c-1.3,0.6-2.9,0.6-4.2-0.1
		l-4.2-2.1c-1.8-0.9-2.7-2.7-2.3-4.4l1.2-5.1c0.4-1.6-0.4-3.3-1.9-4.3C232.6-63.3,86.8,48,64.9,66.5c-1.7,1.4-1.9,3.7-0.5,5.3l0.8,1
		c1.7,2.1,0.8,5-1.7,6.1h0c-1.4,0.6-2.9,0.5-4.2-0.2L31.7,64.2c-3.2-1.7-7.3,0.7-6.8,4l4,28.5c0.2,1.3-0.4,2.7-1.5,3.5L3.5,119.4
		c-2.8,2.2-1.5,6.4,2.2,7l31.4,5.4c1.5,0.3,2.7,1.1,3.3,2.4l3.7,7.6c0.6,1.3,0.4,2.8-0.5,4c-1.7,2.2-3.3,4.4-4.9,6.6
		c-4.4,6.4-10.4,16.2-12.1,26.6c-1.9,11.6,1.2,22,9.1,30.2c15.1,15.7,42.9,19.9,93.7,21.2c2.6,0.1,4.6,2.1,4.4,4.4l-1.3,15.2h0
		l-3.6,41.5c-0.2,2.3,1.7,4.2,4.2,4.4C157.6,297.3,275.8,303.5,381.5,295.9z"/>
	<g>
		<g>
			<path class="st1" d="M101.2,59.4c11.4-6.3,15.9-3.6,18.5,0.6c2.9,4.9-1.2,10-7.6,13.7c-1.2,0.6-2.3,1.3-3.4,2
				c1.3,1.8,2.6,3.6,3.9,5.4c0.9-0.5,1.8-1,2.7-1.5c1.1,1.6,2.2,3.1,3.3,4.7c-4.6,2.6-9.2,5.4-13.7,8.3c-1.2-1.5-2.4-3-3.6-4.5
				c0.8-0.5,1.6-1,2.4-1.5c-3.9-5-7.8-9.9-11.7-14.9c-0.9,0.6-1.7,1.1-2.6,1.7c-1.2-1.5-2.4-3-3.6-4.4C90.8,65.5,96,62.4,101.2,59.4
				z M105.9,71.8c0.7-0.4,1.4-0.8,2.1-1.2c2.7-1.5,3.8-3.6,2.5-5.5c-1.4-2.1-3.9-2.3-6.6-0.8c-0.8,0.5-1.6,0.9-2.4,1.4
				C102.9,67.7,104.4,69.8,105.9,71.8z"/>
			<path class="st1" d="M149.6,69.1c-0.8-1.7-1.7-3.3-2.5-5c1.5-0.6,3-1.2,4.5-1.8c-0.7-0.7-1.5-1.5-2.2-2.2c-3.3,1.3-6.5,2.6-9.7,4
				c0.1,1,0.3,2,0.4,3c1.2-0.5,2.4-1,3.6-1.6c0.9,1.7,1.7,3.3,2.6,5c-4.8,2-9.6,4.2-14.3,6.5c-1-1.6-2-3.2-2.9-4.8
				c1-0.5,2.1-1,3.1-1.5c-1.1-6.4-2.1-12.8-2.9-19.3c-0.7,0.3-1.4,0.6-2,0.9c-0.9-1.6-1.8-3.2-2.7-4.8c6.5-3,13.1-5.7,19.8-8.2
				c6.4,6.2,12.6,12.5,18.5,19c1.1-0.4,2.2-0.7,3.4-1.1c0.7,1.7,1.4,3.4,2.1,5.2C161.9,64.4,155.7,66.6,149.6,69.1z M145.3,56.2
				c-2.4-2.3-4.9-4.6-7.4-6.9c0.3,3.2,0.7,6.4,1.1,9.5C141.1,57.9,143.2,57.1,145.3,56.2z"/>
			<path class="st1" d="M198.2,30.2c1.8,7.8,3.5,15.6,5.3,23.4c-3.5,0.6-6.9,1.3-10.4,2.1c-5.5-4.3-11.2-8.4-17.3-12.3
				c1.1,3.4,2.2,6.7,3.4,10.1c1.2-0.3,2.5-0.7,3.7-1c0.5,1.7,1.1,3.5,1.6,5.2c-4.9,1.2-9.7,2.6-14.5,4.1c-0.7-1.7-1.3-3.4-2-5.1
				c0.9-0.3,1.9-0.6,2.8-0.9c-2.2-5.8-4.4-11.7-6.5-17.5c-1,0.3-2,0.6-3,0.9c-0.7-1.7-1.3-3.4-2-5.1c5.1-1.6,10.2-3.1,15.3-4.4
				c6,3.8,11.7,7.7,17.2,11.8c-0.8-3.2-1.7-6.5-2.5-9.7c-1.2,0.3-2.4,0.5-3.6,0.8c-0.5-1.7-1-3.5-1.5-5.2c5.4-1.2,10.9-2.3,16.4-3.2
				c0.4,1.8,0.7,3.5,1.1,5.3C200.6,29.8,199.4,30,198.2,30.2z"/>
			<path class="st1" d="M227.7,50.3c-0.2-1.8-0.4-3.6-0.6-5.5c1.6-0.1,3.2-0.3,4.8-0.4c-0.4-0.9-0.9-1.8-1.3-2.8
				c-3.5,0.3-6.9,0.6-10.4,1c-0.2,1-0.4,2-0.6,2.9c1.3-0.2,2.6-0.3,3.9-0.4c0.2,1.8,0.5,3.6,0.7,5.4c-5.2,0.5-10.3,1.2-15.5,2.1
				c-0.4-1.8-0.7-3.6-1.1-5.4c1.1-0.2,2.3-0.4,3.4-0.5c1.1-6.4,2.4-12.7,3.9-19.1c-0.7,0.1-1.5,0.2-2.2,0.3
				c-0.3-1.8-0.6-3.6-0.9-5.3c7-0.9,14.1-1.6,21.2-2.1c3.9,7.7,7.5,15.4,10.8,23.3c1.2,0,2.3-0.1,3.5-0.1c0,1.8,0.1,3.7,0.1,5.5
				C240.8,49.3,234.2,49.7,227.7,50.3z M228.1,36.8c-1.5-2.9-3-5.8-4.5-8.7c-0.8,3.1-1.6,6.2-2.3,9.3
				C223.6,37.2,225.8,37,228.1,36.8z"/>
			<path class="st1" d="M249.2,43.5c1,0,2.1,0,3.1,0c0-6.1-0.1-12.1-0.1-18.2c-1.1,0-2.2,0-3.4,0c0-1.8-0.1-3.7-0.1-5.5
				c5.6-0.1,11.3,0,16.9,0.2c13.5,0.6,20.3,7.7,19.2,15.6c-1.3,9.5-8.8,14.1-20.7,13.6c-4.9-0.2-9.9-0.2-14.8-0.2
				C249.3,47.2,249.2,45.4,249.2,43.5z M264.5,43.7c5.3,0.1,7.9-3.8,8.3-9c0.4-4.5-1.7-8.9-7.4-9.1c-0.7,0-1.4,0-2.1-0.1
				c-0.2,6-0.5,12.1-0.7,18.1C263.3,43.7,263.9,43.7,264.5,43.7z"/>
			<path class="st1" d="M321.5,27.2c-0.8,3-1.6,6-2.4,9c-3-0.7-6-1.3-9.1-1.8c0.3-1.2,0.6-2.4,0.9-3.6c-2.8-0.5-5.7-1-8.6-1.5
				c-0.4,1.9-0.7,3.8-1.1,5.7c3.3,0.5,6.6,1.1,9.9,1.7c-0.4,1.8-0.9,3.6-1.3,5.4c-3.2-0.6-6.5-1.2-9.7-1.7c-0.4,2.2-0.9,4.5-1.3,6.7
				c2.7,0.4,5.3,0.9,7.9,1.4c0.3-1.3,0.6-2.5,0.9-3.8c2.9,0.5,5.8,1.1,8.7,1.8c-0.8,3.1-1.7,6.1-2.5,9.2c-9.6-2.1-19.4-3.7-29.2-4.8
				c0.3-1.8,0.5-3.7,0.8-5.5c1.1,0.1,2.1,0.2,3.1,0.4c0.9-6,1.8-12,2.7-18c-1.1-0.1-2.3-0.3-3.4-0.4c0.3-1.8,0.5-3.7,0.8-5.5
				C299.6,23,310.7,24.8,321.5,27.2z"/>
			<path class="st1" d="M341.7,32.3c12.4,3.7,13.1,8.3,11.2,12.7c-1.3,3-5.3,4.1-9.6,3.3c3.3,1.5,5.4,4.9,4.2,7.7
				c-0.7,1.7-0.8,2.8,0,3.1c0.7,0.3,1.3-0.1,1.6-0.9c0.2-0.4,0.4-0.9,0.6-1.3c1.1,0.4,2.1,0.8,3.2,1.2c-0.3,0.7-0.6,1.4-1,2.1
				c-1.5,3.2-4.4,5.6-9.6,3.8c-6.1-2-8-5.6-6.3-10.3c1.3-3.6,1.1-4.7-3.3-5.9c-0.7,2.1-1.4,4.1-2.1,6.2c1,0.3,2,0.6,3,0.8
				c-0.6,1.8-1.3,3.5-1.9,5.3c-5.1-1.5-10.2-2.8-15.4-4c0.5-1.8,1-3.6,1.5-5.4c0.9,0.2,1.8,0.4,2.7,0.6c1.7-5.9,3.5-11.7,5.2-17.6
				c-1-0.2-2-0.5-3-0.7c0.5-1.8,1-3.5,1.5-5.3C330.1,29.1,335.9,30.7,341.7,32.3z M334.2,43.4c0.8,0.2,1.5,0.4,2.3,0.6
				c2.9,0.8,5.3,0.3,6.1-1.8c0.9-2.3-0.4-4.1-3.4-4.9c-0.9-0.3-1.7-0.5-2.6-0.7C335.7,38.8,335,41.1,334.2,43.4z"/>
			<path class="st1" d="M380.5,46.6c-0.9,1.6-1.8,3.3-2.7,4.9c-1-0.5-2.1-0.9-3.1-1.4c-2.9,5.5-5.8,10.9-8.8,16.4
				c1,0.4,1.9,0.8,2.9,1.3c-0.9,1.7-1.8,3.3-2.8,5c-5-2.2-10-4.3-15.1-6.2c0.8-1.7,1.6-3.4,2.4-5.1c1,0.4,2,0.7,3,1.1
				c2.7-5.6,5.3-11.1,8-16.7c-1.1-0.4-2.1-0.8-3.2-1.2c0.8-1.7,1.6-3.4,2.4-5.1C369.2,41.7,374.9,44.1,380.5,46.6z"/>
			<path class="st1" d="M385.2,82.3c1.1-1.6,2.1-3.1,3.2-4.7c1.4,0.8,2.8,1.6,4.2,2.4c0.3-1,0.5-2,0.8-2.9c-3.1-1.7-6.1-3.4-9.3-5
				c-0.8,0.7-1.7,1.3-2.5,2c1.2,0.6,2.3,1.2,3.5,1.8c-1,1.6-2.1,3.1-3.1,4.7c-4.6-2.5-9.3-4.8-14.1-6.9c0.9-1.6,1.8-3.3,2.8-4.9
				c1,0.5,2.1,1,3.1,1.4c5.2-4.5,10.6-8.8,16.1-13c-0.7-0.3-1.3-0.7-2-1c1-1.6,1.9-3.2,2.9-4.7c6.4,3.2,12.7,6.6,18.9,10.2
				c-2,8.3-4.2,16.5-6.8,24.6c1,0.6,2,1.3,3,1.9c-1.2,1.5-2.4,3-3.6,4.4C396.7,88.9,391,85.4,385.2,82.3z M394.6,71.8
				c0.8-3.1,1.5-6.3,2.1-9.4c-2.8,2-5.5,4.1-8.2,6.1C390.6,69.6,392.6,70.7,394.6,71.8z"/>
		</g>
		<g>
			<path class="st1" d="M146.7,271.3c1.8,0.1,3.6,0.3,5.4,0.4c1-11.7,2-23.5,2.9-35.2c-1.7-0.1-3.5-0.2-5.2-0.4
				c0.3-3.4,0.6-6.9,0.9-10.3c11.1,0.8,22.2,1.4,33.3,2c14.8,0.7,21.6,5.8,21.3,14.6c-0.3,6.7-2.5,10-9.4,12.1
				c6.5,1.9,11.8,6.3,11.5,14c-0.4,11.3-8,16.1-26.1,15.3c-11.8-0.6-23.7-1.3-35.5-2.1C146.1,278.2,146.4,274.7,146.7,271.3z
				 M172.8,249.8c1.8,0.1,3.7,0.2,5.5,0.3c4.8,0.2,6.3-2,6.5-5.9c0.2-3.7-2.2-6-5.6-6.1c-1.9-0.1-3.8-0.2-5.7-0.3
				C173.4,241.8,173.1,245.8,172.8,249.8z M178.7,273.2c3.9,0.2,7.7-2.2,7.9-6.5c0.2-4.1-2.3-7.2-7.3-7.4c-2.4-0.1-4.7-0.2-7.1-0.4
				c-0.3,4.6-0.6,9.3-0.9,13.9C173.8,272.9,176.2,273.1,178.7,273.2z"/>
			<path class="st1" d="M265.9,229.3c0.1,5.9,0.1,11.8,0.2,17.7c-5.2,0-10.5,0.1-15.7,0.1c0-2.4,0-4.8,0-7.1c-4.8,0-9.6,0-14.4-0.1
				c-0.1,3.7-0.1,7.4-0.2,11.1c5.8,0.1,11.5,0.1,17.3,0.1c0,3.6,0,7.1,0,10.7c-5.8,0-11.6,0-17.4-0.1c-0.1,4.4-0.1,8.7-0.2,13.1
				c4.9,0.1,9.9,0.1,14.8,0.1c0-2.5,0-5,0-7.5c5.3,0,10.6,0,16-0.1c0.1,6,0.1,12.1,0.2,18.1c-18.8,0.2-37.6,0-56.4-0.6
				c0.1-3.6,0.3-7.1,0.4-10.7c1.9,0.1,3.9,0.1,5.8,0.2c0.4-11.6,0.7-23.2,1.1-34.8c-1.9,0-3.8-0.1-5.7-0.2c0.1-3.5,0.2-7.1,0.4-10.6
				C230,229.3,247.9,229.5,265.9,229.3z"/>
			<path class="st1" d="M333.3,241.3c-0.5,3.6-1.4,9-1.9,10.9c-2.5,10.6-5.1,21.1-7.8,31.6c-6.5,0.3-13,0.6-19.5,0.8
				c-3.9-10.5-7.8-21.1-11.5-31.7c-0.5-1.4-1.8-5.9-2.2-9.9c-0.1,0-0.2,0-0.4,0c0.3,10.5,0.6,21.1,1,31.6c1.8,0,3.5-0.1,5.3-0.1
				c0.1,3.4,0.2,6.9,0.4,10.3c-8.5,0.2-16.9,0.4-25.4,0.5c-0.1-3.4-0.1-6.9-0.2-10.3c1.7,0,3.3,0,5-0.1c-0.2-11.8-0.4-23.6-0.7-35.4
				c-1.6,0-3.2,0-4.8,0.1c-0.1-3.4-0.1-6.9-0.2-10.3c11.3-0.1,22.6-0.4,33.8-0.8c3.4,9.9,7,19.8,10.5,29.6c2.4-10.1,4.8-20.2,7-30.4
				c11.3-0.5,22.7-1.2,34-2c0.3,3.4,0.6,6.9,0.9,10.3c-1.6,0.1-3.3,0.2-4.9,0.3c1,11.7,2,23.5,2.9,35.2c1.7-0.1,3.4-0.2,5.1-0.4
				c0.3,3.5,0.6,6.9,0.9,10.4c-9.8,0.7-19.7,1.3-29.5,1.8c-0.2-3.5-0.4-6.9-0.7-10.4c1.7-0.1,3.5-0.2,5.2-0.3
				c-0.6-8.9-1.2-17.8-1.8-26.7c-0.1-1.6-0.2-3.1-0.3-4.7C333.5,241.3,333.4,241.3,333.3,241.3z"/>
		</g>
		<g>
			<path class="st2" d="M461.1,170.4c0.8,35.5-77.1,35.4-218.9,35.4c-141.8,0-201.5,2.6-196.5-27.8c2.9-17.7,31.1-50,78.3-73.9
				c0,0,0.1-0.1,0.1-0.1c4-2,8.1-4,12.3-5.8c9.7-4.3,20.1-8.2,31.2-11.6c15.7-4.8,32.6-8.4,50.8-10.5c10.8-1.2,22.1-1.9,33.7-1.9
				c3.9,0,7.8,0.1,11.7,0.2c12.5,0.4,24.7,1.6,36.3,3.4c15.7,2.4,30.6,5.8,44.5,10c5.9,1.8,11.7,3.7,17.2,5.8
				C422.8,116.1,460.7,152.4,461.1,170.4z"/>
			<path class="st3" d="M430,154.1c0.6,30.7-66.9,30.7-189.9,30.7c-123,0-174.8,2.2-170.4-24.2c2.2-13.5,21.6-37,54.4-56.5
				c0,0,0.1-0.1,0.1-0.1c33.8-17.1,77.2-29.8,128.1-29.8c33.9,0,65.1,5.3,92.4,13.6C397,107.4,429.6,138.6,430,154.1z"/>
			<path class="st2" d="M187.2,147c-15.4-30.3-36.5-43.3-50.7-48.7c9.7-4.3,20.1-8.2,31.2-11.6C250.4,130.1,211.2,194.3,187.2,147z"
				/>
			<path class="st2" d="M263.9,122.7c-13.6-26.8-31.7-40-45.5-46.5c10.8-1.2,22.1-1.9,33.7-1.9c3.9,0,7.8,0.1,11.7,0.2
				C320.2,116.4,285.8,165.7,263.9,122.7z"/>
			<path class="st2" d="M342.2,122.7c-12.5-24.6-28.8-37.8-42.1-44.8c15.7,2.4,30.6,5.8,44.5,10c5.9,1.8,11.7,3.7,17.2,5.8
				C388.4,129.2,360.8,159.2,342.2,122.7z"/>
		</g>
		<path class="st1" d="M137.1,95c0,0,1.9,1.1,4.9,3.1c3.1,2.1,7.3,5.2,12.1,9.2c2.4,2,4.9,4.2,7.4,6.7c2.6,2.4,5.2,5.1,7.8,7.9
			c2.6,2.8,5.2,5.8,7.7,8.9c2.5,3.1,5,6.3,7.3,9.6c2.4,3.3,4.6,6.6,6.7,10c2.1,3.3,4,6.5,6.7,8.8c2.6,2.4,6,3.9,9.1,3.4
			c3.1-0.5,5.6-2.8,7.2-5.1c1.7-2.3,2.5-4.9,3.1-7.1c0.6-2.3,0.7-4.3,0.6-6c-0.1-1.7-0.3-3-0.5-3.9c-0.2-0.9-0.3-1.4-0.3-1.4
			s0.2,0.5,0.5,1.3c0.3,0.9,0.7,2.2,1,3.9c0.3,1.7,0.4,3.8,0.1,6.2c-0.3,2.4-1.1,5.1-2.7,7.8c-1.6,2.6-4.1,5.6-8.4,6.5
			c-4.3,1-8.8-1-11.8-3.7c-3.2-2.6-5.5-6-7.7-9.3c-2.1-3.3-4.3-6.5-6.7-9.7c-2.3-3.2-4.8-6.3-7.3-9.3c-2.5-3-5.1-5.9-7.7-8.7
			c-2.6-2.7-5.1-5.4-7.6-7.7c-2.5-2.4-4.9-4.6-7.3-6.6c-4.6-4-8.6-7.1-11.5-9.2c-2.9-2.1-4.6-3.1-4.6-3.1L137.1,95z"/>
		<path class="st1" d="M221.7,76.4c0,0,0.5,0.2,1.3,0.7c0.8,0.5,2,1.1,3.5,2.1c2.9,1.9,6.9,4.7,11.3,8.5c2.2,1.9,4.4,4.1,6.7,6.4
			c2.3,2.3,4.6,4.9,7,7.5c2.3,2.7,4.6,5.5,6.8,8.5c2.3,2.9,4.3,6,6.4,9.1c2,3.1,4,6.2,5.9,9.3c1.9,2.9,4.2,5.6,6.9,7.4
			c2.7,1.8,6,2.3,8.8,1.1c2.7-1.2,4.8-3.4,6.1-5.7c2.7-4.6,3.1-9.2,2.9-12.3c-0.1-1.5-0.3-2.8-0.5-3.6c-0.2-0.8-0.3-1.3-0.3-1.3
			s0.2,0.4,0.5,1.2c0.3,0.8,0.7,2,1,3.6c0.5,3.1,0.7,7.9-1.8,13.1c-1.2,2.5-3.2,5.3-6.6,7c-1.7,0.8-3.8,1.3-5.8,1.1
			c-2.1-0.2-4-0.9-5.8-1.9c-3.4-2.1-6-4.9-8.2-8c-2.1-3.1-4-6.1-6.1-9.2c-2.1-3-4.2-6-6.5-8.8c-2.2-2.9-4.5-5.6-6.8-8.2
			c-2.3-2.6-4.5-5.1-6.8-7.4c-2.3-2.3-4.4-4.4-6.5-6.2c-4.2-3.8-7.9-6.6-10.6-8.5c-1.3-0.9-2.4-1.6-3.2-2c-0.7-0.4-1.1-0.6-1.1-0.6
			L221.7,76.4z"/>
		<path class="st1" d="M298.2,75c0,0,0.4,0.2,1.3,0.7c0.8,0.5,2,1.3,3.6,2.2c1.5,1,3.2,2.3,5.2,3.7c1.9,1.5,4.1,3.3,6.4,5.1
			c2.2,2,4.6,4.2,7.1,6.6c2.5,2.4,4.8,5.1,7.4,7.7c2.6,2.6,4.8,5.7,7.2,8.7c1.2,1.5,2.4,3,3.6,4.6c1.2,1.5,2.2,3.2,3.3,4.8
			c2.1,3.2,4.3,6.4,6.4,9.6c1,1.6,2,3.1,3.1,4.5c1.1,1.4,2.4,2.6,3.7,3.7c2.7,2.1,6,3.2,9,2.2c3-0.8,5.2-3.2,6.7-5.4
			c2.9-4.7,3.4-9.5,3.3-12.7c-0.1-1.6-0.3-2.9-0.5-3.7c-0.2-0.9-0.3-1.3-0.3-1.3s0.2,0.4,0.5,1.3c0.3,0.8,0.7,2.1,1,3.7
			c0.5,3.2,0.6,8.2-2.2,13.5c-1.5,2.6-3.6,5.4-7.5,6.8c-1.9,0.7-4.1,0.8-6.2,0.3c-2.1-0.5-4-1.4-5.6-2.6c-3.2-2.3-5.8-5.6-7.9-8.7
			c-2.1-3.1-4.3-6.3-6.5-9.4c-1.1-1.6-2.1-3.2-3.3-4.7c-1.2-1.5-2.4-3-3.6-4.4c-2.4-2.9-4.6-5.9-7.2-8.5c-2.5-2.6-4.8-5.3-7.2-7.6
			c-2.4-2.3-4.8-4.4-6.9-6.4c-2.2-1.9-4.3-3.6-6.1-5.1c-1.9-1.4-3.6-2.7-5-3.7c-1.4-0.9-2.5-1.7-3.3-2.2c-0.8-0.5-1.2-0.7-1.2-0.7
			L298.2,75z"/>
		<ellipse class="st0" cx="91.8" cy="166.4" rx="10.5" ry="9.4"/>
		<path class="st0" d="M111,175.8c0,2.2-1.9,3.9-4.3,3.9c-2.4,0-4.3-1.7-4.3-3.9c0-2.2,1.9-3.9,4.3-3.9
			C109,171.9,111,173.7,111,175.8z"/>
		<polygon class="st1" points="437.5,116.8 431.6,105.5 418,103.5 428,95 425.9,82.8 438,88.7 450.4,83.1 447.8,95.3 457.5,104.1 
			443.8,105.7 		"/>
		<polygon class="st1" points="75.3,111.7 61.5,112.9 54.9,123.8 49.3,112.4 35.8,110.1 46.1,101.8 44.4,89.5 56.3,95.8 68.8,90.5 
			65.8,102.6 		"/>
		<g>
			<path class="st1" d="M186,209.1c-84.5,0-125.8-1.5-139.3-15.6c-4.1-4.2-5.6-9.6-4.5-16c1.2-7.2,5.9-14.8,9.4-19.9
				c6.9-10.2,16.5-20.5,27.6-29.8c10.1-8.5,21.2-15.9,32.9-22.2c8.8-4.7,18.1-8.9,27.6-12.6c32.9-12.8,68.8-20.1,106.7-21.6
				c3.9-0.2,7.9-0.2,11.8-0.2c36.2,0,71.5,6.6,105.1,19.5c12.7,4.9,25.5,10.8,37.8,17.4c14,7.5,31.9,18,45.8,32.4
				c8,8.3,17.6,20.3,17.9,29.8c0.2,7-2.5,13-7.8,17.9C434.3,209,362.6,209,243.8,209h-1.5c-10.7,0-20.9,0-30.6,0
				C202.7,209.1,194.2,209.1,186,209.1z M258.2,77.6c-3.8,0-7.7,0.1-11.5,0.2c-37,1.5-72,8.6-104.1,21.1
				c-9.2,3.6-18.2,7.7-26.8,12.3c-11.3,6-21.9,13.2-31.7,21.4c-10.7,8.9-19.8,18.8-26.4,28.4c-4.9,7.2-7.7,12.9-8.4,17.5
				c-0.8,4.6,0.2,8,2.9,10.8c11.9,12.4,58.5,13.3,133.9,13.3c8.2,0,16.7,0,25.6,0c9.7,0,20,0,30.6,0h1.5c112.9,0,187.5,0,208-18.9
				c4-3.6,5.8-8,5.7-13.2c-0.1-5.8-6-15.2-16.1-25.7c-13.2-13.7-30.4-23.8-44-31.1c-12.1-6.5-24.5-12.2-37-17.1
				C327.8,84,293.4,77.6,258.2,77.6z"/>
		</g>
	</g>
</g>
</svg>
